<svg width="40" height="40" viewBox="0 0 40 40" fill="none" xmlns="http://www.w3.org/2000/svg">
<path d="M33.436 0H10.4493C8.45687 0 6.64844 1.01703 5.61172 2.72047C5.3364 3.17297 5.47718 3.77125 5.92562 4.05406L7.56625 5.08906L5.69765 5.37562C5.43664 5.41563 5.20773 5.55547 5.05289 5.76945C4.89929 5.98172 4.83851 6.24047 4.88164 6.49773C4.89093 6.55328 4.90117 6.60891 4.91218 6.66375C4.92437 6.72516 4.9375 6.78742 4.9514 6.84891C4.95289 6.85602 4.95445 6.8632 4.95625 6.87063C4.95711 6.87445 4.95789 6.8782 4.95875 6.88203C5.34226 8.55188 6.815 9.71805 8.54 9.71805H11.1799C10.1376 12.4625 8.515 16.1469 6.94195 19.7188C6.82929 19.9748 6.83179 20.2673 6.94898 20.5213C7.06617 20.7753 7.28695 20.9672 7.555 21.0477L7.94461 21.1647L6.43609 21.6666C6.17437 21.7537 5.9607 21.9485 5.84984 22.2011L5.65914 22.6366C5.47804 23.0502 5.60226 23.5304 5.96133 23.8045L6.37679 24.1216L5.2375 24.4703C4.96242 24.5546 4.73945 24.7548 4.62586 25.0195C4.32812 25.7134 4.06383 26.3375 3.81781 26.9276C3.6932 27.2262 3.83445 27.5693 4.13304 27.6939C4.20672 27.7247 4.2832 27.7392 4.35836 27.7392C4.58781 27.7392 4.80562 27.6036 4.89937 27.3786C5.13414 26.8158 5.38562 26.2215 5.66726 25.5643L7.08359 25.1306C7.43523 25.0229 7.69398 24.7311 7.7589 24.3691C7.82375 24.007 7.68242 23.6435 7.39 23.4205L6.79422 22.9659L6.88828 22.7512L8.90031 22.0817C9.30625 21.9466 9.57484 21.5684 9.56843 21.1406C9.56211 20.7128 9.28258 20.3428 8.87281 20.2198L8.10351 19.9888C9.73476 16.2847 11.4062 12.4812 12.4316 9.71797H16.1033C16.4269 9.71797 16.6892 9.45562 16.6892 9.13203C16.6892 8.80844 16.4269 8.54609 16.1033 8.54609H8.53992C7.3664 8.54609 6.36492 7.7568 6.10226 6.6257C6.10086 6.6193 6.09945 6.61281 6.09781 6.60617C6.09711 6.60289 6.0964 6.59961 6.0957 6.59633C6.08875 6.56547 6.08195 6.53445 6.07547 6.50328L8.2607 6.16813C8.66765 6.10578 8.98484 5.805 9.06875 5.40195C9.15265 4.99891 8.98187 4.59656 8.63375 4.37695L6.71625 3.16734C7.55211 1.91406 8.93359 1.17188 10.4493 1.17188H29.983C29.6448 1.43219 29.3335 1.73266 29.056 2.07C27.9964 3.3582 27.5717 5.0275 27.8909 6.65031C27.9048 6.72102 27.9197 6.79164 27.9349 6.85563C28.0409 7.32164 28.1627 7.79141 28.3076 8.29195C28.3322 8.3768 28.2983 8.43953 28.2759 8.46937C28.2544 8.49805 28.2058 8.54609 28.122 8.54609H18.3768C18.0531 8.54609 17.7909 8.80844 17.7909 9.13203C17.7909 9.45562 18.0531 9.71797 18.3768 9.71797H28.1219C28.555 9.71797 28.9526 9.51945 29.2127 9.17328C29.4743 8.82516 29.5546 8.385 29.4331 7.96602C29.2948 7.48766 29.1784 7.03953 29.0762 6.59C29.0631 6.53484 29.0515 6.47891 29.0405 6.42359C28.7894 5.14648 29.1248 3.83094 29.961 2.81437C30.8009 1.79328 32.0313 1.19969 33.348 1.17422C34.5804 1.32359 35.8351 2.01906 36.5685 3.02914C37.2899 4.02289 37.5578 5.22836 37.3229 6.42297C37.3117 6.47906 37.3001 6.53523 37.2859 6.59531C37.0573 7.59656 36.5084 9.16469 35.6084 11.3872L31.9642 11.7673C31.4919 11.8166 31.1334 12.1815 31.0927 12.6547C31.0519 13.1279 31.3424 13.5487 31.7994 13.6783L34.3482 14.4002C33.6171 16.1065 32.8042 17.9517 32.0172 19.7384C31.1943 21.6065 30.3438 23.537 29.5843 25.3143L28.3867 25.563C27.9685 25.6499 27.6658 25.9801 27.6155 26.4043C27.5652 26.8284 27.7823 27.2202 28.1686 27.4024L28.618 27.6145C28.1991 28.6345 27.8549 29.5095 27.5683 30.2821H11.8782C11.4451 30.2821 11.0475 30.4807 10.7874 30.8268C10.5258 31.1749 10.4455 31.615 10.567 32.034C10.7053 32.5125 10.8217 32.9606 10.9238 33.4099C10.9367 33.4641 10.9482 33.519 10.959 33.5738C10.9957 33.8169 11.1811 34.0126 11.4244 34.0608L12.597 34.2932L11.3742 34.6931C11.168 34.7605 11.0161 34.9362 10.979 35.1498C10.6215 37.21 8.78312 38.7714 6.67695 38.8255C5.43726 38.6845 4.18195 37.9963 3.44133 36.984C2.71242 35.9877 2.44109 34.7776 2.67726 33.577C2.68843 33.5208 2.70008 33.4646 2.71437 33.4045C2.91297 32.5337 3.35078 31.2441 4.05258 29.4621C4.17117 29.161 4.0232 28.8209 3.72211 28.7022C3.42093 28.5835 3.08078 28.7316 2.96218 29.0327C2.23851 30.8702 1.78375 32.2149 1.57297 33.1392C1.55648 33.2088 1.54164 33.2792 1.52758 33.3502C1.2275 34.8763 1.57133 36.4125 2.49562 37.6759C3.40922 38.9248 5.03867 39.7989 6.56406 40H29.5508C32.1815 40 34.5008 38.1484 35.0656 35.5974C35.1356 35.2815 34.9362 34.9686 34.6202 34.8987C34.3047 34.8289 33.9915 35.0282 33.9216 35.3441C33.4745 37.3629 31.6364 38.8281 29.5508 38.8281H10.0156C10.0906 38.7705 10.1642 38.7109 10.2365 38.6495C11.1459 37.8754 11.7847 36.839 12.0605 35.7015L15.0899 34.7108C15.3432 34.628 15.5087 34.3846 15.4927 34.1186C15.4766 33.8526 15.2831 33.6309 15.0217 33.5791L12.0285 32.9857C11.9313 32.5716 11.8209 32.152 11.6925 31.7079C11.6679 31.623 11.7018 31.5604 11.7242 31.5305C11.7457 31.5019 11.7943 31.4538 11.8781 31.4538H31.4602C32.6145 31.4538 33.6131 32.2287 33.8885 33.3384C33.9665 33.6524 34.2842 33.8438 34.5984 33.7659C34.9125 33.688 35.1039 33.3702 35.0259 33.0561C34.6205 31.4227 33.1542 30.282 31.4602 30.282H28.82C29.0867 29.5791 29.4002 28.7914 29.7723 27.8893C29.9709 27.4077 29.7575 26.8562 29.2862 26.6339L29.1966 26.5916L29.9225 26.4409C30.2351 26.3759 30.4964 26.1621 30.6217 25.8687C31.3888 24.0716 32.2534 22.1089 33.0895 20.2109C33.9094 18.3498 34.7571 16.4254 35.513 14.6569C35.6234 14.3987 35.6173 14.1053 35.4963 13.852C35.3755 13.5988 35.1512 13.4097 34.8812 13.3332L33.0959 12.8275L35.8466 12.5405C36.2062 12.503 36.5141 12.2716 36.6501 11.9367C37.6002 9.59766 38.1819 7.9357 38.4272 6.8607C38.4437 6.79117 38.4585 6.7207 38.4726 6.64969C38.7712 5.13125 38.4317 3.60102 37.5167 2.3407C36.6037 1.08312 34.9691 0.201484 33.436 0Z" fill="#FF6600"/>
<path d="M13.7374 23.2928C13.9002 23.5834 14.2081 23.7639 14.5411 23.7639H17.5098L19.2148 26.5444C19.3835 26.8197 19.677 26.984 19.9999 26.9841H20.0001C20.3229 26.9841 20.6165 26.8197 20.7852 26.5445L22.4904 23.7639H25.459C25.792 23.7639 26.0999 23.5834 26.2627 23.2928C26.4253 23.0022 26.4183 22.6453 26.2442 22.3613L24.7973 20.0018L26.2442 17.6422C26.4183 17.3583 26.4252 17.0014 26.2626 16.7108C26.0998 16.4202 25.792 16.2397 25.4589 16.2397H22.4902L20.7852 13.4592C20.6165 13.1839 20.323 13.0196 20.0001 13.0195C20 13.0195 20 13.0195 19.9999 13.0195C19.6771 13.0195 19.3835 13.1839 19.2148 13.4591L17.5096 16.2397H14.541C14.208 16.2397 13.9001 16.4202 13.7373 16.7108C13.5747 17.0014 13.5817 17.3583 13.7558 17.6423L15.2028 20.0018L13.7559 22.3614C13.5818 22.6453 13.5748 23.0022 13.7374 23.2928ZM20 25.5831L18.8844 23.7638H21.1156L20 25.5831ZM18.1658 22.592L16.5775 20.0018L18.1659 17.4116H21.8343L23.4226 20.0018L21.8342 22.592H18.1658ZM25.0109 22.592H23.2089L24.1099 21.1227L25.0109 22.592ZM25.0109 17.4116L24.1099 18.8809L23.2089 17.4116H25.0109ZM20 14.4205L21.1156 16.2398H18.8844L20 14.4205ZM14.9891 17.4116H16.7912L15.8902 18.8809L14.9891 17.4116ZM15.8902 21.1227L16.7912 22.592H14.9891L15.8902 21.1227Z" fill="#FF6600"/>
<path d="M21.1145 19.3086H18.8855C18.5618 19.3086 18.2996 19.5709 18.2996 19.8945C18.2996 20.2181 18.5618 20.4805 18.8855 20.4805H19.4141V20.6571C19.4141 20.9807 19.6764 21.243 20 21.243C20.3237 21.243 20.586 20.9807 20.586 20.6571V20.4805H21.1146C21.4382 20.4805 21.7005 20.2181 21.7005 19.8945C21.7005 19.5709 21.4382 19.3086 21.1145 19.3086Z" fill="#FF6600"/>
<path d="M11.6601 3.28439C11.349 3.19556 11.0246 3.37564 10.9358 3.68681C10.8469 3.99798 11.0271 4.32228 11.3382 4.41119L11.9541 4.58712C12.0079 4.60251 12.0621 4.60986 12.1154 4.60986C12.3704 4.60986 12.605 4.44212 12.6785 4.18478C12.7674 3.87361 12.5872 3.54931 12.2761 3.46041L11.6601 3.28439Z" fill="#FF6600"/>
<path d="M29.3379 15.891H29.3382L30.0645 15.8906C30.3881 15.8905 30.6502 15.628 30.6501 15.3044C30.6499 14.9809 30.3877 14.7188 30.0641 14.7188H30.0638L29.3376 14.7191C29.0139 14.7193 28.7518 14.9818 28.752 15.3054C28.7521 15.6289 29.0144 15.891 29.3379 15.891Z" fill="#FF6600"/>
<path d="M7.53973 35.1449C7.66145 35.1449 7.78426 35.1071 7.88934 35.0288C8.14887 34.8355 8.20254 34.4685 8.00918 34.2089L7.61325 33.6774C7.41989 33.4178 7.05278 33.3642 6.79333 33.5575C6.53379 33.7509 6.48012 34.1179 6.67348 34.3774L7.06942 34.909C7.18442 35.0634 7.3609 35.1449 7.53973 35.1449Z" fill="#FF6600"/>
<path d="M4.90754 34.8789C5.23121 34.8789 5.49348 34.6166 5.49348 34.293C5.49348 33.9694 5.23121 33.707 4.90754 33.707H4.89941C4.57574 33.707 4.31348 33.9694 4.31348 34.293C4.31348 34.6166 4.57574 34.8789 4.89941 34.8789H4.90754Z" fill="#FF6600"/>
<path d="M29.3313 19.4336H29.3394H29.3422C29.6645 19.4336 29.9265 19.1731 29.9281 18.8504C29.9296 18.5268 29.6685 18.2632 29.3449 18.2617H29.3367C29.3358 18.2617 29.3349 18.2617 29.3339 18.2617C29.0116 18.2617 28.7496 18.5222 28.7481 18.8449C28.7466 19.1685 29.0076 19.4321 29.3313 19.4336Z" fill="#FF6600"/>
<path d="M13.9656 2.6875C13.9647 2.6875 13.9638 2.6875 13.9628 2.6875C13.6406 2.6875 13.3785 2.94797 13.377 3.2707C13.3754 3.5943 13.6365 3.85789 13.9602 3.85938H13.9683H13.9711C14.2934 3.85938 14.5554 3.59891 14.557 3.27617C14.5585 2.95258 14.2974 2.68898 13.9738 2.6875H13.9656Z" fill="#FF6600"/>
<path d="M15.3731 5.41797C15.3722 5.41797 15.3713 5.41797 15.3703 5.41797C15.048 5.41797 14.786 5.67844 14.7844 6.00117C14.7829 6.32477 15.044 6.58836 15.3676 6.58984H15.3758H15.3786C15.7008 6.58984 15.9629 6.32937 15.9644 6.00664C15.966 5.68305 15.7049 5.41945 15.3812 5.41797H15.3731Z" fill="#FF6600"/>
<path d="M18.5818 35.6836C18.2581 35.6836 17.9958 35.9459 17.9958 36.2695C17.9958 36.5931 18.2581 36.8555 18.5818 36.8555H18.5899C18.9136 36.8555 19.1758 36.5931 19.1758 36.2695C19.1758 35.9459 18.9136 35.6836 18.5899 35.6836H18.5818Z" fill="#FF6600"/>
</svg>
