<svg width="40" height="40" viewBox="0 0 40 40" fill="none" xmlns="http://www.w3.org/2000/svg">
<path d="M22.9993 14.3747C22.9993 14.7176 23.2616 14.9954 23.5852 14.9954H35.8301C36.1537 14.9954 36.416 14.7176 36.416 14.3747C36.416 14.0318 36.1537 13.7539 35.8301 13.7539H23.5852C23.2616 13.7539 22.9993 14.0318 22.9993 14.3747Z" fill="#FF6600"/>
<path d="M35.8301 18.9883H23.5852C23.2616 18.9883 22.9993 19.2661 22.9993 19.609C22.9993 19.9519 23.2616 20.2298 23.5852 20.2298H35.8301C36.1537 20.2298 36.416 19.9519 36.416 19.609C36.416 19.2661 36.1537 18.9883 35.8301 18.9883Z" fill="#FF6600"/>
<path d="M35.8301 24.2227H23.5852C23.2616 24.2227 22.9993 24.5005 22.9993 24.8434C22.9993 25.1863 23.2616 25.4641 23.5852 25.4641H35.8301C36.1537 25.4641 36.416 25.1863 36.416 24.8434C36.416 24.5005 36.1537 24.2227 35.8301 24.2227Z" fill="#FF6600"/>
<path d="M35.8301 29.457H23.5852C23.2616 29.457 22.9993 29.7349 22.9993 30.0778C22.9993 30.4207 23.2616 30.6985 23.5852 30.6985H35.8301C36.1537 30.6985 36.416 30.4207 36.416 30.0778C36.416 29.7349 36.1537 29.457 35.8301 29.457Z" fill="#FF6600"/>
<path d="M16.4153 13.7539H9.05884C8.73524 13.7539 8.4729 14.0318 8.4729 14.3747C8.4729 14.7176 8.73524 14.9954 9.05884 14.9954H16.4153C16.7389 14.9954 17.0012 14.7176 17.0012 14.3747C17.0012 14.0318 16.7389 13.7539 16.4153 13.7539Z" fill="#FF6600"/>
<path d="M16.4153 18.9883H9.05884C8.73524 18.9883 8.4729 19.2661 8.4729 19.609C8.4729 19.9519 8.73524 20.2298 9.05884 20.2298H16.4153C16.7389 20.2298 17.0012 19.9519 17.0012 19.609C17.0012 19.2661 16.7389 18.9883 16.4153 18.9883Z" fill="#FF6600"/>
<path d="M16.4153 24.2227H9.05884C8.73524 24.2227 8.4729 24.5005 8.4729 24.8434C8.4729 25.1863 8.73524 25.4641 9.05884 25.4641H16.4153C16.7389 25.4641 17.0012 25.1863 17.0012 24.8434C17.0012 24.5005 16.7389 24.2227 16.4153 24.2227Z" fill="#FF6600"/>
<path d="M16.4153 29.457H9.05884C8.73524 29.457 8.4729 29.7349 8.4729 30.0778C8.4729 30.4207 8.73524 30.6985 9.05884 30.6985H16.4153C16.7389 30.6985 17.0012 30.4207 17.0012 30.0778C17.0012 29.7349 16.7389 29.457 16.4153 29.457Z" fill="#FF6600"/>
<path d="M35.8293 10.5657C36.1529 10.5657 36.4152 10.2879 36.4152 9.94496C36.4152 9.60206 36.1529 9.32422 35.8293 9.32422H34.8877C34.5641 9.32422 34.3018 9.60206 34.3018 9.94496C34.3018 10.2879 34.5641 10.5657 34.8877 10.5657H35.8293Z" fill="#FF6600"/>
<path d="M5.11271 10.5657C5.4363 10.5657 5.69865 10.2879 5.69865 9.94496C5.69865 9.60206 5.4363 9.32422 5.11271 9.32422H4.17114C3.84755 9.32422 3.58521 9.60206 3.58521 9.94496C3.58521 10.2879 3.84755 10.5657 4.17114 10.5657H5.11271Z" fill="#FF6600"/>
<path d="M6.94459 13.7533C6.94459 13.1828 6.50654 12.7188 5.96802 12.7188H4.56177C4.02325 12.7188 3.58521 13.1828 3.58521 13.7533V15.2431C3.58521 15.8136 4.02325 16.2777 4.56177 16.2777H5.96802C6.50654 16.2777 6.94459 15.8136 6.94459 15.2431V13.7533ZM5.77271 15.0362H4.75708V13.9602H5.77271V15.0362Z" fill="#FF6600"/>
<path d="M6.94459 18.9877C6.94459 18.4172 6.50654 17.9531 5.96802 17.9531H4.56177C4.02325 17.9531 3.58521 18.4172 3.58521 18.9877V20.4775C3.58521 21.048 4.02325 21.5121 4.56177 21.5121H5.96802C6.50654 21.5121 6.94459 21.048 6.94459 20.4775V18.9877ZM5.77271 20.2706H4.75708V19.1946H5.77271V20.2706Z" fill="#FF6600"/>
<path d="M6.94459 24.2221C6.94459 23.6516 6.50654 23.1875 5.96802 23.1875H4.56177C4.02325 23.1875 3.58521 23.6516 3.58521 24.2221V25.7119C3.58521 26.2824 4.02325 26.7464 4.56177 26.7464H5.96802C6.50654 26.7464 6.94459 26.2824 6.94459 25.7119V24.2221ZM5.77271 25.5049H4.75708V24.429H5.77271V25.5049Z" fill="#FF6600"/>
<path d="M5.96802 28.4219H4.56177C4.02325 28.4219 3.58521 28.8859 3.58521 29.4565V30.9462C3.58521 31.5167 4.02325 31.9808 4.56177 31.9808H5.96802C6.50654 31.9808 6.94459 31.5167 6.94459 30.9462V29.4565C6.94459 28.886 6.50646 28.4219 5.96802 28.4219ZM5.77271 30.7393H4.75708V29.6634H5.77271V30.7393Z" fill="#FF6600"/>
<path d="M7.50764 4.32527H30.5085C30.7323 4.32527 30.9511 4.28016 31.1587 4.19127L34.0247 2.96385C34.3346 2.83118 34.5347 2.51675 34.5347 2.16268C34.5347 1.8086 34.3346 1.49409 34.0247 1.36142L31.1589 0.134081C30.9514 0.0451076 30.7325 0 30.5084 0H13.2982C12.9746 0 12.7123 0.277846 12.7123 0.620745C12.7123 0.963645 12.9746 1.24149 13.2982 1.24149H29.2222V3.08378H7.50764C7.02819 3.08378 6.63819 2.67053 6.63819 2.16259C6.63819 1.65466 7.02827 1.24149 7.50764 1.24149H10.5638C10.8874 1.24149 11.1498 0.963645 11.1498 0.620745C11.1498 0.277846 10.8874 0 10.5638 0H7.50764C6.38201 0 5.46631 0.970184 5.46631 2.16259C5.46623 3.35509 6.38201 4.32527 7.50764 4.32527ZM30.3941 1.24149H30.5085C30.5812 1.24149 30.6521 1.25614 30.7195 1.28494L32.7687 2.16259L30.7196 3.04016C30.6521 3.06913 30.5811 3.0837 30.5085 3.0837H30.3941V1.24149Z" fill="#FF6600"/>
<path d="M37.461 6.34375H31.6895C31.3659 6.34375 31.1036 6.6216 31.1036 6.9645C31.1036 7.3074 31.3659 7.58524 31.6895 7.58524H37.461C38.2148 7.58524 38.8282 8.23504 38.8282 9.03365V33.4263C38.8282 34.2249 38.2148 34.8747 37.461 34.8747H20.586V29.7266C20.586 29.3837 20.3236 29.1058 20 29.1058C19.6764 29.1058 19.4141 29.3837 19.4141 29.7266V34.8747H2.53907C1.78524 34.8747 1.17188 34.2249 1.17188 33.4263V9.03365C1.17188 8.23504 1.78524 7.58524 2.53907 7.58524H19.4141V26.8298C19.4141 27.1727 19.6764 27.4505 20 27.4505C20.3236 27.4505 20.586 27.1727 20.586 26.8298V7.58524H28.9551C29.2787 7.58524 29.5411 7.3074 29.5411 6.9645C29.5411 6.6216 29.2787 6.34375 28.9551 6.34375H2.53907C1.13906 6.34375 0 7.5504 0 9.03365V33.4263C0 34.9095 1.13906 36.1162 2.53907 36.1162H19.4141V38.9641C19.4141 39.3253 19.5872 39.6543 19.8772 39.8441C20.0351 39.9475 20.2122 39.9997 20.39 39.9997C20.5389 39.9997 20.6884 39.9632 20.8274 39.8895L23.1713 38.6479C23.5042 38.4715 23.7109 38.1169 23.7109 37.7226V36.1162H37.4609C38.8609 36.1162 40 34.9095 40 33.4263V9.03365C40.0001 7.5504 38.861 6.34375 37.461 6.34375ZM22.5391 37.5948L20.586 38.6294V36.1162H22.5391V37.5948Z" fill="#FF6600"/>
</svg>
