<svg width="40" height="40" viewBox="0 0 40 40" fill="none" xmlns="http://www.w3.org/2000/svg">
<g clip-path="url(#clip0_149_10560)">
<path d="M20 40C18.6381 40 17.277 39.8622 15.9546 39.5905C15.6376 39.5254 15.4334 39.2156 15.4986 38.8987C15.5637 38.5816 15.8734 38.3776 16.1905 38.4426C17.4355 38.6984 18.7172 38.8282 20.0001 38.8282C25.0293 38.8282 29.7575 36.8697 33.3136 33.3135C36.8698 29.7574 38.8282 25.0292 38.8282 20C38.8282 17.3767 38.2992 14.8384 37.2559 12.4557C36.248 10.1537 34.81 8.10383 32.982 6.36311C32.7476 6.13998 32.7385 5.76904 32.9617 5.53466C33.1848 5.30021 33.5558 5.2913 33.7901 5.51435C35.7315 7.36304 37.2587 9.54025 38.3294 11.9857C39.438 14.5175 40.0001 17.2139 40.0001 20C40.0001 25.3423 37.9197 30.3648 34.1422 34.1423C30.3647 37.9198 25.3422 40 20 40ZM13.8351 39.0009C13.7735 39.0009 13.7108 38.9911 13.6491 38.9704C9.70603 37.6508 6.31764 35.1714 3.85012 31.7998C1.33142 28.3581 0 24.2778 0 20C0 14.6578 2.08033 9.63533 5.85787 5.85779C9.63541 2.08025 14.6578 0 20 0C24.1555 0 28.14 1.26251 31.523 3.65105C31.7873 3.83777 31.8503 4.20332 31.6637 4.4677C31.477 4.73208 31.1114 4.79497 30.847 4.6084C27.6629 2.36026 23.912 1.17189 20 1.17189C14.9708 1.17189 10.2427 3.13034 6.68655 6.68647C3.13034 10.2426 1.17189 14.9708 1.17189 20C1.17189 24.0273 2.42502 27.8682 4.79583 31.1077C7.11929 34.2824 10.3093 36.6171 14.021 37.8591C14.3279 37.9618 14.4934 38.2938 14.3907 38.6007C14.3087 38.8459 14.0802 39.0009 13.8351 39.0009ZM19.7915 37.4832C19.0985 37.4832 18.4055 37.3158 17.8655 36.9811C17.5904 36.8107 17.5056 36.4495 17.6761 36.1744C17.8466 35.8994 18.2077 35.8145 18.4828 35.985C19.1923 36.4247 20.3909 36.4247 21.1002 35.985C21.3295 35.8429 21.3701 35.6478 21.3315 35.5125C21.3055 35.4212 21.2307 35.3124 21.0218 35.3124C20.6982 35.3124 20.4359 35.0501 20.4359 34.7264C20.4359 34.4028 20.6982 34.1405 21.0218 34.1405C21.7129 34.1405 22.2768 34.553 22.4586 35.1914C22.6512 35.8678 22.3534 36.5869 21.7176 36.9811C21.1775 37.3158 20.4845 37.4832 19.7915 37.4832ZM26.5228 35.9095C26.4234 35.9095 26.3226 35.8843 26.2303 35.8309C25.9501 35.6692 25.854 35.3108 26.0158 35.0306C26.0987 34.887 26.1938 34.747 26.2999 34.6114L25.2227 32.7456C25.0523 32.7695 24.8834 32.782 24.7178 32.782C24.7177 32.782 24.7177 32.782 24.7177 32.782C24.3941 32.782 24.1317 32.5196 24.1317 32.196C24.1317 31.8723 24.3941 31.6101 24.7177 31.6101C24.9189 31.6101 25.1303 31.5825 25.3445 31.5316C25.3679 31.5242 25.3916 31.5184 25.4153 31.514C26.0864 31.3391 26.7766 30.9405 27.2637 30.4469C27.2794 30.4284 27.2964 30.4108 27.3146 30.3941C27.4657 30.2341 27.5951 30.0649 27.6957 29.8907C27.8575 29.6104 28.2158 29.5142 28.4961 29.6762C28.7764 29.8379 28.8725 30.1962 28.7107 30.4765C28.6278 30.6201 28.5326 30.7601 28.4266 30.8957L29.5039 32.7616C29.6741 32.7376 29.8429 32.7252 30.0085 32.7252H30.0089C30.3325 32.7252 30.5948 32.9875 30.5948 33.3112C30.5948 33.6348 30.3324 33.8971 30.0088 33.8971C30.0087 33.897 30.0086 33.897 30.0085 33.8971C28.9323 33.8971 27.5687 34.6843 27.0307 35.6164C26.9223 35.8043 26.7253 35.9095 26.5228 35.9095ZM26.386 32.4166L27.1663 33.7684C27.5253 33.4964 27.9254 33.2654 28.3405 33.0904L27.5601 31.7388C27.2011 32.0106 26.801 32.2416 26.386 32.4166ZM12.4899 35.697C12.1004 35.697 11.7002 35.5957 11.3321 35.3832C10.8303 35.0935 10.4598 34.6403 10.2889 34.1071C10.1115 33.5535 10.1683 32.9811 10.4487 32.4954C10.8089 31.8715 11.4223 31.5209 11.9152 31.2392C12.2321 31.0581 12.5597 30.8709 12.6636 30.6908C12.7554 30.5318 12.7211 30.4621 12.7099 30.4393C12.6661 30.3503 12.5191 30.2466 12.3229 30.2205C12.0021 30.178 11.7765 29.8834 11.8191 29.5626C11.8617 29.2418 12.1564 29.0153 12.477 29.0589C13.0441 29.1342 13.5362 29.4647 13.7612 29.9215C13.9689 30.3433 13.9395 30.8246 13.6785 31.2767C13.4162 31.731 12.9487 31.9982 12.4967 32.2566C12.0692 32.5009 11.6653 32.7317 11.4635 33.0813C11.3504 33.2773 11.3296 33.5145 11.4049 33.7495C11.4867 34.0048 11.6689 34.2245 11.9179 34.3683C12.4131 34.6542 13.015 34.5421 13.2597 34.1183C13.4664 33.7603 13.6409 33.1334 13.6908 32.922C13.7333 32.7416 13.8585 32.592 14.0287 32.5185C14.1988 32.4451 14.3936 32.4563 14.554 32.549L14.9639 32.7856C15.2441 32.9473 15.3401 33.3056 15.1784 33.586C15.063 33.7858 14.8473 33.892 14.6321 33.8778C14.5402 34.1487 14.4193 34.4535 14.2746 34.7042C13.9049 35.3444 13.2163 35.697 12.4899 35.697ZM18.9782 35.3125C18.2872 35.3125 17.7233 34.9 17.5414 34.2615C17.3488 33.5852 17.6467 32.866 18.2824 32.4719C19.3624 31.8023 21.0544 31.8023 22.1345 32.4719C22.4096 32.6424 22.4944 33.0036 22.3238 33.2786C22.1533 33.5537 21.7922 33.6384 21.5171 33.468C20.8077 33.0282 19.6092 33.0282 18.8999 33.468C18.6706 33.6101 18.63 33.8053 18.6685 33.9406C18.6946 34.0318 18.7694 34.1406 18.9782 34.1406C19.3018 34.1406 19.5642 34.4029 19.5642 34.7266C19.5642 35.0503 19.3019 35.3125 18.9782 35.3125ZM7.10983 30.7344C6.97038 30.7344 6.8321 30.6848 6.72241 30.5882C6.65335 30.5274 6.03912 29.9787 5.73068 29.4444C5.23068 28.5783 5.43802 27.6674 5.7649 26.8799L4.50778 26.802C4.18481 26.782 3.93918 26.5039 3.95918 26.181C3.97918 25.8579 4.25731 25.6126 4.58028 25.6324L6.30905 25.7396L7.08062 24.1888C7.22476 23.8991 7.57648 23.7809 7.86625 23.9252C8.15594 24.0693 8.27399 24.4211 8.12984 24.7108L7.57882 25.8182L8.81337 25.8947C9.13634 25.9147 9.38197 26.1928 9.36197 26.5157C9.34189 26.8387 9.06407 27.0832 8.74087 27.0643L7.01624 26.9575C6.60085 27.8409 6.46967 28.3807 6.74553 28.8584C6.8485 29.0367 7.03351 29.2486 7.19905 29.4203L9.65603 28.0018C9.93627 27.8401 10.2946 27.936 10.4564 28.2163C10.6182 28.4965 10.5222 28.8549 10.242 29.0167L7.40273 30.6558C7.3114 30.7087 7.21038 30.7344 7.10983 30.7344ZM20 30.6251C14.1413 30.6251 9.37494 25.8586 9.37494 20C9.37494 19.6763 9.63728 19.414 9.96088 19.414C10.2845 19.414 10.5468 19.6763 10.5468 20C10.5468 25.2125 14.7875 29.4532 20 29.4532C25.2126 29.4532 29.4533 25.2125 29.4533 20C29.4533 14.7874 25.2126 10.5467 20 10.5467C17.832 10.5467 15.7929 11.2606 14.1032 12.611C12.4624 13.9222 11.2914 15.7624 10.8059 17.7924C10.7307 18.1071 10.4143 18.3013 10.0997 18.226C9.78502 18.1508 9.59087 17.8346 9.66611 17.5199C10.212 15.2373 11.528 13.169 13.3715 11.6955C15.2441 10.199 17.5981 9.37486 20 9.37486C25.8588 9.37486 30.6251 14.1413 30.6251 20C30.6251 25.8586 25.8587 30.6251 20 30.6251ZM34.0449 30.5232C33.9454 30.5232 33.8447 30.4979 33.7524 30.4446C33.2121 30.1326 32.8567 29.6217 32.7252 29.0573C32.1707 29.2256 31.5506 29.1734 31.0103 28.8614C29.9745 28.2634 29.6183 26.9342 30.2163 25.8983C30.8143 24.8624 32.1434 24.5063 33.1794 25.1044C33.6811 25.3941 34.0401 25.8618 34.19 26.4214C34.1962 26.4443 34.2019 26.4673 34.2073 26.4903C34.2299 26.4835 34.2527 26.477 34.2756 26.4708C34.8351 26.3209 35.4197 26.3978 35.9215 26.6875C36.2018 26.8492 36.2978 27.2076 36.136 27.4878C35.9741 27.7682 35.6157 27.8639 35.3356 27.7023C35.1049 27.5691 34.8361 27.5337 34.5789 27.6028C34.3217 27.6717 34.1066 27.8367 33.9734 28.0674C33.6985 28.5436 33.8622 29.1547 34.3384 29.4297C34.6186 29.5915 34.7146 29.9498 34.5528 30.2301C34.4442 30.4182 34.2473 30.5232 34.0449 30.5232ZM32.0965 25.986C31.7516 25.986 31.4157 26.1648 31.2312 26.4843C30.9562 26.9606 31.12 27.5716 31.5962 27.8466C32.0723 28.1214 32.6834 27.9577 32.9584 27.4816C33.0917 27.2509 33.127 26.9821 33.0581 26.7249C32.9892 26.4675 32.8241 26.2525 32.5934 26.1193C32.4368 26.0289 32.2655 25.986 32.0965 25.986ZM20 28.2813C19.6764 28.2813 19.4141 28.019 19.4141 27.6954V25.1877C18.8864 25.1284 18.3823 24.9903 17.9138 24.7852L16.6598 26.9574C16.498 27.2376 16.1396 27.3334 15.8594 27.1718C15.5791 27.01 15.4831 26.6517 15.6449 26.3714L16.8999 24.1977C16.482 23.8884 16.1117 23.518 15.8023 23.1001L13.6286 24.3551C13.3485 24.5167 12.99 24.4209 12.8282 24.1406C12.6665 23.8604 12.7625 23.502 13.0427 23.3402L15.2148 22.0862C15.0098 21.6177 14.8716 21.1136 14.8124 20.5859H12.3047C11.9811 20.5859 11.7187 20.3236 11.7187 20C11.7187 19.6763 11.9811 19.414 12.3047 19.414H14.8124C14.8716 18.8864 15.0098 18.3823 15.2148 17.9138L13.0427 16.6597C12.7625 16.4979 12.6665 16.1395 12.8282 15.8593C12.99 15.579 13.3484 15.483 13.6286 15.6448L15.8023 16.8999C16.1117 16.482 16.4821 16.1116 16.8999 15.8022L15.645 13.6286C15.4832 13.3483 15.5792 12.99 15.8595 12.8282C16.1396 12.6665 16.4981 12.7623 16.6598 13.0426L17.9139 15.2147C18.3824 15.0097 18.8864 14.8715 19.4142 14.8123V12.3046C19.4142 11.9809 19.6765 11.7186 20.0001 11.7186C20.3237 11.7186 20.5861 11.9809 20.5861 12.3046V14.8126C21.104 14.871 21.6104 15.0063 22.0868 15.214L23.3404 13.0427C23.5022 12.7623 23.8605 12.6665 24.1408 12.8283C24.421 12.99 24.517 13.3484 24.3552 13.6286L22.8277 16.2742C22.8235 16.2817 22.8191 16.2891 22.8145 16.2964C22.6452 16.5674 22.2897 16.6531 22.0156 16.4884C22.0129 16.4868 22.0101 16.4851 22.0075 16.4834C21.3993 16.1355 20.7056 15.9516 20 15.9516C17.7678 15.9516 15.9516 17.7677 15.9516 20C15.9516 22.2323 17.7678 24.0484 20 24.0484C22.2323 24.0484 24.0484 22.2323 24.0484 20C24.0484 19.2947 23.8648 18.6014 23.5171 17.9934C23.5126 17.9862 23.5082 17.9788 23.504 17.9714C23.3455 17.6914 23.4419 17.3362 23.7205 17.1754L26.3714 15.6448C26.6517 15.4831 27.01 15.579 27.1718 15.8593C27.3336 16.1395 27.2376 16.4979 26.9574 16.6597L24.7861 17.9133C24.9937 18.3898 25.129 18.896 25.1874 19.414H27.6953C28.0189 19.414 28.2813 19.6763 28.2813 20C28.2813 20.3236 28.0189 20.5859 27.6953 20.5859H25.1876C25.1284 21.1136 24.9902 21.6177 24.7852 22.0862L26.9573 23.3402C27.2375 23.502 27.3335 23.8604 27.1717 24.1406C27.01 24.4209 26.6516 24.5166 26.3713 24.3551L24.1976 23.1001C23.8882 23.518 23.5179 23.8884 23.1001 24.1977L24.355 26.3714C24.5168 26.6517 24.4208 27.01 24.1405 27.1718C23.8603 27.3335 23.5019 27.2377 23.3401 26.9574L22.0861 24.7852C21.6176 24.9903 21.1135 25.1285 20.5858 25.1877V27.6954C20.586 28.019 20.3236 28.2813 20 28.2813ZM35.3537 22.9297C35.0301 22.9297 34.7678 22.6674 34.7678 22.3437C34.7678 22.0201 35.0301 21.7578 35.3537 21.7578C35.6768 21.7578 35.9396 21.495 35.9396 21.1719C35.9396 20.8487 35.6768 20.5859 35.3537 20.5859H33.1732C32.8496 20.5859 32.5873 20.3236 32.5873 20C32.5873 19.6763 32.8496 19.414 33.1732 19.414H35.3537C35.6768 19.414 35.9396 19.1512 35.9396 18.8281C35.9396 18.5049 35.6768 18.2421 35.3537 18.2421C35.0301 18.2421 34.7678 17.9799 34.7678 17.6562C34.7678 17.3325 35.0301 17.0702 35.3537 17.0702C36.323 17.0702 37.1115 17.8588 37.1115 18.8281C37.1115 19.2778 36.9418 19.6888 36.6629 20C36.9418 20.3111 37.1115 20.7221 37.1115 21.1719C37.1115 22.1411 36.323 22.9297 35.3537 22.9297ZM6.91413 22.9297C6.59053 22.9297 6.32819 22.6674 6.32819 22.3437V17.4954C6.32819 17.1717 6.59053 16.9095 6.91413 16.9095C7.23773 16.9095 7.50007 17.1717 7.50007 17.4954V22.3437C7.50007 22.6674 7.23773 22.9297 6.91413 22.9297ZM4.57036 22.9297C4.24676 22.9297 3.98441 22.6674 3.98441 22.3437V21.6574C3.30238 21.4155 2.81253 20.7639 2.81253 20C2.81253 19.236 3.30238 18.5844 3.98441 18.3425V17.6562C3.98441 17.3325 4.24676 17.0702 4.57036 17.0702C4.89395 17.0702 5.1563 17.3325 5.1563 17.6562V18.8281C5.1563 19.1518 4.89395 19.414 4.57036 19.414C4.24723 19.414 3.98441 19.6768 3.98441 20C3.98441 20.3231 4.24723 20.5859 4.57036 20.5859C4.89395 20.5859 5.1563 20.8482 5.1563 21.1719V22.3437C5.1563 22.6674 4.89395 22.9297 4.57036 22.9297ZM7.60468 16.1363C7.50531 16.1363 7.40453 16.1109 7.31226 16.0577L4.47301 14.4184C4.2552 14.2927 4.14192 14.042 4.19153 13.7954C4.20965 13.7052 4.3777 12.8989 4.68622 12.3646C5.11911 11.6149 5.72427 11.5169 6.15623 11.5666C6.62741 11.6209 7.09796 11.8743 7.53953 12.1293L8.46579 12.6642C8.54735 12.7112 8.61938 12.7262 8.68016 12.709C8.73376 12.6936 8.78243 12.6518 8.81735 12.5913C8.92337 12.4075 8.8786 12.1991 8.68415 11.9716L6.8571 9.83346C6.64694 9.58744 6.67592 9.21759 6.92194 9.00735C7.16796 8.7972 7.53773 8.82618 7.74804 9.0722L9.57509 11.2103C10.0956 11.8194 10.1917 12.5547 9.83228 13.1772C9.64462 13.5022 9.35001 13.7361 9.00274 13.8355C8.63555 13.9407 8.2368 13.8851 7.87992 13.679L6.95358 13.1442C6.6096 12.9456 6.25865 12.758 6.02201 12.7308C5.9285 12.7199 5.84014 12.7097 5.70115 12.9505C5.59826 13.1288 5.50724 13.395 5.44123 13.6243L7.8982 15.0428C8.17844 15.2046 8.27446 15.563 8.11266 15.8432C8.00414 16.0312 7.80719 16.1363 7.60468 16.1363ZM31.8748 15.8762C31.8161 15.8762 31.7564 15.8673 31.6975 15.8486C31.389 15.7507 31.2183 15.4213 31.3161 15.1129C31.5352 14.4219 31.9636 13.8308 32.5123 13.3909L31.9798 12.4685C31.3244 12.7237 30.5984 12.7992 29.8904 12.6435C29.5743 12.574 29.3744 12.2614 29.444 11.9453C29.5135 11.6293 29.8264 11.4298 30.1421 11.4989C30.561 11.5911 30.9894 11.5644 31.3873 11.442L31.0742 10.8998C30.9124 10.6196 31.0084 10.2612 31.2887 10.0994C31.5688 9.93768 31.9273 10.0336 32.0891 10.3139L32.4021 10.856C32.7071 10.5726 32.9442 10.215 33.0739 9.80619C33.1717 9.49767 33.501 9.32689 33.8096 9.42478C34.1181 9.52267 34.2888 9.85205 34.191 10.1605C33.9718 10.8515 33.5435 11.4425 32.9947 11.8825L33.5272 12.8049C34.1826 12.5495 34.9087 12.4741 35.6167 12.6298C35.9327 12.6993 36.1326 13.0119 36.0631 13.328C35.9936 13.644 35.6809 13.844 35.365 13.7744C34.946 13.6822 34.5177 13.7089 34.1198 13.8313L34.4328 14.3735C34.5946 14.6537 34.4986 15.0121 34.2184 15.1739C33.9381 15.3355 33.5798 15.2398 33.418 14.9594L33.1049 14.4173C32.7999 14.7007 32.5628 15.0583 32.4331 15.4672C32.354 15.7167 32.1233 15.8762 31.8748 15.8762ZM11.8952 10.6015C11.845 10.6015 11.7939 10.595 11.7432 10.5814C11.4306 10.4976 11.2451 10.1763 11.3288 9.86369L11.7871 8.15352L11.7382 8.14039C11.4256 8.05672 11.2401 7.73531 11.3238 7.42273C11.4075 7.11015 11.7289 6.92429 12.0414 7.00843L12.0904 7.02155L12.4467 5.69209L12.1563 5.85975C11.8761 6.02147 11.5177 5.92553 11.3559 5.64529C11.1941 5.36505 11.2901 5.00669 11.5703 4.84489L13.0858 3.96996C13.3563 3.80715 13.7329 3.90785 13.8862 4.18442L14.7611 5.69982C14.9229 5.98006 14.8269 6.33842 14.5466 6.50022C14.2664 6.66186 13.908 6.566 13.7462 6.28576L13.5786 5.99537L13.2223 7.32484L13.2712 7.33796C13.5838 7.42164 13.7693 7.74304 13.6856 8.05563C13.6019 8.36821 13.2805 8.55415 12.9679 8.46993L12.919 8.4568L12.4607 10.1671C12.3907 10.4289 12.1539 10.6015 11.8952 10.6015ZM27.5968 9.7715C27.3751 9.7715 27.1709 9.64595 27.0717 9.44525L26.6206 8.5329L25.6049 8.59837C25.3688 8.61407 25.1467 8.4854 25.0419 8.27336L24.4177 7.01085C24.2742 6.72077 24.3931 6.36936 24.6832 6.22592C24.9734 6.08256 25.3248 6.20147 25.4681 6.49139L25.9192 7.40374L26.9349 7.33828C27.1714 7.32265 27.3931 7.45132 27.4979 7.66328L27.949 8.57563L28.9647 8.51016C29.2879 8.48876 29.5664 8.73423 29.5872 9.0572C29.608 9.38017 29.3631 9.65877 29.0402 9.67963L27.6346 9.77025C27.6219 9.77111 27.6093 9.7715 27.5968 9.7715ZM21.3597 8.20321C21.0128 8.20321 20.6838 8.09219 20.4083 7.88226C20.151 7.68601 20.1014 7.31835 20.2975 7.06101C20.4937 6.80374 20.8615 6.75405 21.1188 6.95022C21.1673 6.98726 21.2485 7.03132 21.3597 7.03132C21.5792 7.03132 21.7578 6.85272 21.7578 6.63311C21.7578 6.43334 21.6905 5.93842 21.2699 4.80106H20.3604L19.351 6.80015C19.2514 6.99749 19.0491 7.12195 18.828 7.12195C18.6069 7.12195 18.4046 6.99749 18.3049 6.80015L17.1331 4.47926C16.9872 4.19035 17.1031 3.83793 17.392 3.69207C17.6809 3.54644 18.0332 3.66222 18.1791 3.95098L18.8279 5.23599L19.4768 3.95098C19.5764 3.75363 19.7787 3.62918 19.9998 3.62918H21.3727L21.8672 2.9387C22.0555 2.67565 22.4215 2.61503 22.6847 2.80346C22.9478 2.99183 23.0084 3.35792 22.8199 3.62097L22.3337 4.30004C22.7343 5.36802 22.9294 6.13303 22.9294 6.63311C22.9298 7.49882 22.2254 8.20321 21.3597 8.20321ZM28.7686 7.7418C28.5469 7.7418 28.3428 7.61625 28.2436 7.41554L27.7925 6.50319L26.7767 6.56866C26.5407 6.58514 26.3186 6.45569 26.2138 6.24366L25.5895 4.98114C25.4461 4.69106 25.565 4.33957 25.8551 4.19621C26.1453 4.05277 26.4966 4.17176 26.64 4.46168L27.0911 5.37404L28.1068 5.30857C28.3432 5.29372 28.565 5.42154 28.6698 5.63357L29.1209 6.54592L30.1366 6.48045C30.4594 6.45905 30.7382 6.70452 30.7591 7.02749C30.7799 7.35038 30.535 7.62906 30.2121 7.64992L28.8065 7.74054C28.7938 7.7414 28.7812 7.7418 28.7686 7.7418Z" fill="#FF6600"/>
</g>
<defs>
<clipPath id="clip0_149_10560">
<rect width="40" height="40" fill="white"/>
</clipPath>
</defs>
</svg>
