<svg width="40" height="40" viewBox="0 0 40 40" fill="none" xmlns="http://www.w3.org/2000/svg">
<path d="M10.8806 29.567C6.8465 29.44 6.84592 23.5882 10.8807 23.461C11.4479 23.468 12.002 23.6319 12.4818 23.9346C12.9615 24.2373 13.3481 24.6669 13.5987 25.1757C13.8493 25.6846 13.954 26.253 13.9014 26.8178C13.8488 27.3826 13.6408 27.9218 13.3005 28.3756C13.2031 28.5072 13.1612 28.6717 13.1838 28.8338C13.2064 28.996 13.2917 29.1428 13.4214 29.2427C13.5511 29.3426 13.7148 29.3877 13.8773 29.3682C14.0399 29.3487 14.1883 29.2662 14.2907 29.1385C14.8156 28.4592 15.1255 27.6386 15.1806 26.782C15.2358 25.9254 15.0337 25.0718 14.6002 24.3309C14.1667 23.59 13.5217 22.9955 12.7479 22.6238C11.9742 22.2521 11.107 22.1202 10.2577 22.2449C9.4084 22.3697 8.61577 22.7454 7.98156 23.3238C7.34734 23.9023 6.90049 24.6571 6.69837 25.4914C6.49624 26.3257 6.54808 27.2013 6.84721 28.0059C7.14634 28.8105 7.67912 29.5074 8.37715 30.007C7.32991 30.3813 6.38038 30.9865 5.59899 31.7779C4.8176 32.5692 4.2244 33.5264 3.8634 34.5783C3.7533 34.9265 3.7267 35.2958 3.78576 35.6563C3.84482 36.0167 3.98788 36.3582 4.20338 36.6531C4.41887 36.948 4.70075 37.1881 5.02621 37.3538C5.35168 37.5196 5.71159 37.6065 6.07684 37.6074L15.6843 37.6074C16.0574 37.6068 16.4249 37.5173 16.7565 37.3463C17.088 37.1754 17.3741 36.9279 17.5911 36.6245C17.8032 36.3333 17.9419 35.9952 17.9953 35.639C18.0487 35.2827 18.0152 34.9188 17.8978 34.5783C17.3965 33.1157 16.4506 31.8464 15.1924 30.9478C13.9342 30.0493 12.4267 29.5665 10.8806 29.567ZM16.5742 35.8975C16.4731 36.0393 16.3396 36.155 16.1848 36.235C16.0301 36.3149 15.8585 36.3569 15.6843 36.3574H6.0768C5.90262 36.3569 5.73105 36.3149 5.57631 36.235C5.42156 36.155 5.28808 36.0393 5.1869 35.8975C5.09153 35.7677 5.02893 35.6167 5.00444 35.4575C4.97994 35.2982 4.99427 35.1354 5.04622 34.9829C5.46347 33.7672 6.25005 32.7123 7.29606 31.9654C8.34207 31.2185 9.59527 30.817 10.8806 30.817C12.1659 30.817 13.4191 31.2185 14.4651 31.9654C15.5111 32.7123 16.2977 33.7672 16.7149 34.9829C16.7669 35.1354 16.7812 35.2982 16.7567 35.4575C16.7322 35.6167 16.6696 35.7677 16.5742 35.8975Z" fill="#FF6600"/>
<path d="M36.1359 34.5782C35.7749 33.5263 35.1817 32.5691 34.4003 31.7778C33.6189 30.9864 32.6693 30.3812 31.6221 30.0069C34.9836 27.6407 33.285 22.2001 29.1185 22.211C27.9777 22.2122 26.884 22.666 26.0773 23.4727C25.2706 24.2793 24.8169 25.3731 24.8157 26.5139C24.7781 27.316 25.4246 29.946 26.585 29.252C26.6501 29.2019 26.7046 29.1395 26.7455 29.0684C26.7864 28.9972 26.8129 28.9187 26.8234 28.8373C26.834 28.7559 26.8284 28.6732 26.8069 28.594C26.7855 28.5147 26.7487 28.4405 26.6986 28.3755C26.2782 27.8291 26.055 27.1564 26.0655 26.4671C26.076 25.7777 26.3195 25.1122 26.7563 24.5788C27.1932 24.0454 27.7977 23.6756 28.4714 23.5295C29.1452 23.3834 29.8486 23.4696 30.4672 23.7741C31.0857 24.0786 31.583 24.5835 31.8781 25.2066C32.1732 25.8297 32.2487 26.5343 32.0924 27.2058C31.9361 27.8773 31.5571 28.4761 31.0172 28.9048C30.4772 29.3335 29.8081 29.5669 29.1186 29.5669C27.5725 29.5664 26.065 30.0492 24.8068 30.9477C23.5486 31.8463 22.6027 33.1156 22.1014 34.5782C21.9913 34.9264 21.9647 35.2957 22.0238 35.6562C22.0829 36.0166 22.2259 36.3581 22.4414 36.653C22.6569 36.9479 22.9388 37.188 23.2643 37.3538C23.5897 37.5195 23.9497 37.6064 24.3149 37.6073L33.9224 37.6073C34.2877 37.6064 34.6476 37.5196 34.9731 37.3538C35.2985 37.188 35.5804 36.9479 35.7959 36.653C36.0114 36.3581 36.1545 36.0166 36.2135 35.6562C36.2726 35.2957 36.246 34.9264 36.1359 34.5782ZM34.8123 35.8974C34.7111 36.0392 34.5776 36.1549 34.4229 36.2349C34.2682 36.3148 34.0966 36.3568 33.9224 36.3573H24.3149C24.1407 36.3568 23.9691 36.3148 23.8144 36.2349C23.6596 36.1549 23.5262 36.0392 23.425 35.8974C23.3296 35.7676 23.267 35.6166 23.2425 35.4574C23.218 35.2981 23.2324 35.1353 23.2843 34.9828C23.7015 33.7671 24.4881 32.7122 25.5341 31.9653C26.5801 31.2184 27.8333 30.8169 29.1186 30.8169C30.4039 30.8169 31.6571 31.2184 32.7031 31.9653C33.7492 32.7122 34.5357 33.7671 34.953 34.9828C35.0049 35.1353 35.0193 35.2981 34.9948 35.4574C34.9703 35.6166 34.9077 35.7676 34.8123 35.8974Z" fill="#FF6600"/>
<path d="M26.5436 17.0165C26.636 17.0883 26.7466 17.133 26.863 17.1454C26.9794 17.1578 27.0969 17.1375 27.2024 17.0868C27.3079 17.0361 27.3971 16.957 27.4601 16.8584C27.5231 16.7597 27.5573 16.6455 27.5589 16.5285V13.7752H29.1861C29.6503 13.7747 30.0954 13.5901 30.4237 13.2619C30.752 12.9337 30.9366 12.4886 30.9372 12.0244V4.14172C30.9367 3.67746 30.7521 3.23237 30.4238 2.90408C30.0955 2.5758 29.6504 2.39114 29.1861 2.39062H17.9254C17.4612 2.39114 17.0161 2.5758 16.6878 2.90408C16.3595 3.23237 16.1749 3.67746 16.1743 4.14172V8.08033H10.6366C10.2192 8.08077 9.81903 8.24678 9.52387 8.54194C9.22872 8.8371 9.0627 9.23729 9.06226 9.6547V16.2905C9.0627 16.7079 9.22872 17.1081 9.52387 17.4032C9.81903 17.6984 10.2192 17.8644 10.6366 17.8648H11.9071V20.0847C11.9087 20.2017 11.9429 20.316 12.0059 20.4147C12.0689 20.5133 12.1581 20.5924 12.2636 20.6431C12.3691 20.6938 12.4867 20.7141 12.603 20.7016C12.7194 20.6892 12.83 20.6445 12.9224 20.5727L16.3071 17.8649H20.1172C20.5346 17.8644 20.9348 17.6984 21.23 17.4033C21.5251 17.1081 21.6912 16.7079 21.6916 16.2905V13.7752H22.4921L26.5436 17.0165ZM20.4416 16.2905C20.4421 16.3332 20.434 16.3756 20.4179 16.4151C20.4017 16.4547 20.3778 16.4906 20.3476 16.5208C20.3174 16.5511 20.2815 16.5749 20.2419 16.5911C20.2024 16.6072 20.16 16.6153 20.1172 16.6148H16.088C15.9461 16.6148 15.8084 16.6631 15.6977 16.7519L13.1571 18.7844V17.2399C13.1571 17.0741 13.0912 16.9151 12.974 16.7979C12.8568 16.6807 12.6978 16.6149 12.5321 16.6149H10.6366C10.5939 16.6153 10.5515 16.6072 10.512 16.5911C10.4724 16.575 10.4365 16.5511 10.4063 16.5209C10.376 16.4907 10.3522 16.4547 10.336 16.4152C10.3199 16.3756 10.3118 16.3332 10.3123 16.2905V9.65473C10.3118 9.612 10.3199 9.56962 10.336 9.53006C10.3522 9.4905 10.376 9.45456 10.4063 9.42435C10.4365 9.39413 10.4724 9.37026 10.512 9.35412C10.5515 9.33798 10.5939 9.3299 10.6366 9.33035H16.1743V12.0244C16.1749 12.4887 16.3596 12.9337 16.6879 13.2619C17.0162 13.5901 17.4612 13.7747 17.9254 13.7752H20.4416V16.2905ZM17.9254 12.5252C17.7926 12.5251 17.6653 12.4723 17.5714 12.3784C17.4774 12.2845 17.4246 12.1572 17.4243 12.0244V4.14172C17.4245 4.00888 17.4774 3.88154 17.5713 3.78761C17.6653 3.69367 17.7926 3.64082 17.9254 3.64063H29.1861C29.319 3.64082 29.4463 3.69367 29.5402 3.78761C29.6342 3.88154 29.687 4.00888 29.6872 4.14172V12.0244C29.687 12.1572 29.6342 12.2845 29.5402 12.3784C29.4463 12.4723 29.3189 12.5251 29.1861 12.5252H26.9339C26.7682 12.5252 26.6092 12.5911 26.492 12.7083C26.3748 12.8255 26.3089 12.9844 26.3089 13.1502V15.2281L23.1015 12.6622C22.9908 12.5735 22.8531 12.5252 22.7112 12.5252H17.9254Z" fill="#FF6600"/>
</svg>
